<svg xmlns="http://www.w3.org/2000/svg" xmlns:xlink="http://www.w3.org/1999/xlink" width="512" zoomAndPan="magnify" viewBox="0 0 384 383.999986" height="512" preserveAspectRatio="xMidYMid meet" version="1.0"><defs><clipPath id="58574ce60a"><path d="M 144 101 L 346 101 L 346 360.496094 L 144 360.496094 Z M 144 101 " clip-rule="nonzero"/></clipPath></defs><path fill="#38bdf7" d="M 285.722656 327.761719 L 99.257812 327.761719 C 86.851562 327.761719 76.417969 318.113281 75.234375 305.90625 L 220.941406 305.90625 C 226.652344 305.90625 231.378906 301.179688 231.378906 295.46875 L 231.378906 218.480469 C 231.378906 212.769531 226.652344 208.046875 220.941406 208.046875 L 75.039062 208.046875 L 75.039062 48.359375 C 75.039062 34.96875 86.066406 24.140625 99.257812 24.140625 C 189.4375 24.140625 52.59375 24.140625 253.234375 24.140625 C 255.398438 24.140625 257.171875 25.910156 257.171875 28.078125 C 257.171875 29.851562 255.992188 31.425781 254.414062 31.820312 L 254.414062 78.679688 L 302.066406 80.453125 C 302.261719 78.484375 303.835938 76.710938 306.003906 76.710938 C 308.167969 76.710938 309.941406 78.484375 309.941406 80.648438 L 309.941406 303.542969 C 309.941406 316.929688 299.113281 327.761719 285.722656 327.761719 Z M 155.175781 177.328125 L 155.175781 149.367188 C 155.175781 147.203125 156.949219 145.429688 159.117188 145.429688 C 161.28125 145.429688 163.054688 147.203125 163.054688 149.367188 L 163.054688 177.328125 L 206.371094 177.328125 L 206.371094 149.367188 C 206.371094 147.203125 208.144531 145.429688 210.308594 145.429688 C 212.476562 145.429688 214.246094 147.203125 214.246094 149.367188 L 214.246094 177.328125 L 233.347656 177.328125 L 233.347656 149.367188 C 233.347656 134.011719 220.941406 121.410156 205.386719 121.410156 L 163.839844 121.410156 C 148.484375 121.410156 135.882812 134.011719 135.882812 149.367188 L 135.882812 177.328125 Z M 164.824219 113.53125 C 157.933594 107.824219 153.601562 99.355469 153.601562 89.707031 C 153.601562 72.578125 167.582031 58.597656 184.710938 58.597656 C 201.84375 58.597656 215.824219 72.578125 215.824219 89.707031 C 215.824219 99.355469 211.492188 107.824219 204.597656 113.53125 L 205.386719 113.53125 C 225.273438 113.53125 241.222656 129.679688 241.222656 149.367188 L 241.222656 181.265625 C 241.222656 183.433594 239.449219 185.203125 237.285156 185.203125 L 131.941406 185.203125 C 129.777344 185.203125 128.003906 183.433594 128.003906 181.265625 L 128.003906 149.367188 C 128.003906 129.679688 144.152344 113.53125 163.839844 113.53125 Z M 184.710938 66.472656 C 171.914062 66.472656 161.476562 76.910156 161.476562 89.707031 C 161.476562 102.507812 171.914062 112.941406 184.710938 112.941406 C 197.511719 112.941406 207.945312 102.507812 207.945312 89.707031 C 207.945312 76.910156 197.511719 66.472656 184.710938 66.472656 Z M 184.710938 66.472656 " fill-opacity="1" fill-rule="evenodd"/><path fill="#38bdf7" d="M 306.003906 84.589844 L 253.234375 84.589844 C 251.066406 84.589844 249.296875 83.011719 249.296875 80.648438 L 249.296875 28.078125 C 249.296875 26.503906 250.28125 25.125 251.855469 24.535156 C 253.234375 23.746094 255.007812 24.140625 255.992188 25.320312 L 308.367188 77.695312 C 309.351562 78.289062 309.941406 79.46875 309.941406 80.648438 C 309.941406 83.011719 308.167969 84.589844 306.003906 84.589844 Z M 257.171875 76.710938 L 296.355469 76.710938 L 257.171875 37.527344 Z M 257.171875 76.710938 " fill-opacity="1" fill-rule="evenodd"/><g clip-path="url(#58574ce60a)"><path fill="#38bdf7" d="M 324.316406 360.25 L 166.007812 360.25 C 154.390625 360.25 144.9375 350.601562 144.9375 338.984375 L 144.9375 334.257812 L 285.722656 334.257812 C 302.65625 334.257812 316.4375 320.476562 316.4375 303.542969 L 316.4375 101.128906 L 324.316406 101.128906 C 335.933594 101.128906 345.382812 110.578125 345.382812 122.195312 L 345.382812 338.984375 C 345.382812 350.601562 335.933594 360.25 324.316406 360.25 Z M 324.316406 360.25 " fill-opacity="1" fill-rule="evenodd"/></g><path fill="#38bdf7" d="M 220.941406 299.40625 L 42.550781 299.40625 C 40.382812 299.40625 38.613281 297.636719 38.613281 295.46875 L 38.613281 218.480469 C 38.613281 216.316406 40.382812 214.542969 42.550781 214.542969 L 220.941406 214.542969 C 223.109375 214.542969 224.878906 216.316406 224.878906 218.480469 L 224.878906 295.46875 C 224.878906 297.636719 223.109375 299.40625 220.941406 299.40625 Z M 170.535156 279.125 C 168.371094 279.125 166.597656 277.355469 166.597656 275.1875 L 166.597656 238.171875 L 166.792969 238.171875 L 166.792969 237.972656 C 167.1875 236.203125 168.761719 234.824219 170.535156 234.824219 L 187.273438 234.824219 C 189.4375 234.824219 191.210938 236.597656 191.210938 238.761719 C 191.210938 240.929688 189.4375 242.699219 187.273438 242.699219 L 174.472656 242.699219 L 174.472656 250.96875 L 184.121094 250.96875 C 186.289062 250.96875 188.058594 252.742188 188.058594 254.90625 C 188.058594 257.074219 186.289062 258.847656 184.121094 258.847656 L 174.472656 258.847656 L 174.472656 275.1875 C 174.472656 277.355469 172.703125 279.125 170.535156 279.125 Z M 141.984375 279.125 C 136.273438 279.125 130.761719 276.960938 126.429688 272.628906 C 122.296875 268.492188 119.933594 262.980469 119.933594 257.074219 C 119.933594 251.167969 122.296875 245.652344 126.429688 241.519531 C 130.566406 237.382812 136.078125 235.21875 141.984375 235.21875 C 147.890625 235.21875 153.40625 237.382812 157.539062 241.519531 C 159.117188 243.09375 159.117188 245.652344 157.539062 247.230469 C 155.964844 248.605469 153.40625 248.605469 152.027344 247.230469 C 149.269531 244.472656 145.726562 243.09375 141.984375 243.09375 C 138.242188 243.09375 134.699219 244.472656 131.941406 247.230469 C 129.382812 249.789062 127.808594 253.332031 127.808594 257.074219 C 127.808594 260.816406 129.382812 264.359375 131.941406 267.117188 C 137.457031 272.628906 146.515625 272.628906 152.027344 267.117188 C 153.601562 265.539062 155.964844 265.539062 157.539062 267.117188 C 159.117188 268.691406 159.117188 271.054688 157.539062 272.628906 C 153.207031 276.960938 147.695312 279.125 141.984375 279.125 Z M 94.335938 279.125 C 92.761719 279.125 91.382812 278.339844 90.789062 276.960938 L 72.675781 240.929688 C 71.691406 238.957031 72.480469 236.597656 74.449219 235.613281 C 76.417969 234.628906 78.78125 235.414062 79.765625 237.382812 L 94.335938 266.328125 L 108.707031 237.382812 C 109.691406 235.414062 112.054688 234.628906 114.023438 235.613281 C 115.992188 236.597656 116.78125 238.957031 115.796875 240.929688 L 97.878906 276.960938 C 97.089844 278.339844 95.714844 279.125 94.335938 279.125 Z M 94.335938 279.125 " fill-opacity="1" fill-rule="evenodd"/></svg>