<svg xmlns="http://www.w3.org/2000/svg" xmlns:xlink="http://www.w3.org/1999/xlink" width="512" zoomAndPan="magnify" viewBox="0 0 384 383.999986" height="512" preserveAspectRatio="xMidYMid meet" version="1.0"><defs><clipPath id="c2e9fc44fe"><path d="M 145 101 L 346 101 L 346 360.496094 L 145 360.496094 Z M 145 101 " clip-rule="nonzero"/></clipPath></defs><path fill="#000000" d="M 285.914062 327.984375 L 99.3125 327.984375 C 86.898438 327.984375 76.457031 318.328125 75.273438 306.113281 L 221.085938 306.113281 C 226.800781 306.113281 231.53125 301.382812 231.53125 295.667969 L 231.53125 218.625 C 231.53125 212.910156 226.800781 208.179688 221.085938 208.179688 L 75.078125 208.179688 L 75.078125 48.375 C 75.078125 34.976562 86.109375 24.140625 99.3125 24.140625 C 189.558594 24.140625 52.613281 24.140625 253.402344 24.140625 C 255.570312 24.140625 257.34375 25.914062 257.34375 28.082031 C 257.34375 29.855469 256.160156 31.429688 254.585938 31.824219 L 254.585938 78.722656 L 302.269531 80.496094 C 302.464844 78.523438 304.042969 76.75 306.210938 76.75 C 308.378906 76.75 310.152344 78.523438 310.152344 80.691406 L 310.152344 303.746094 C 310.152344 317.144531 299.3125 327.984375 285.914062 327.984375 Z M 155.273438 177.441406 L 155.273438 149.460938 C 155.273438 147.292969 157.046875 145.519531 159.214844 145.519531 C 161.382812 145.519531 163.15625 147.292969 163.15625 149.460938 L 163.15625 177.441406 L 206.503906 177.441406 L 206.503906 149.460938 C 206.503906 147.292969 208.277344 145.519531 210.445312 145.519531 C 212.613281 145.519531 214.386719 147.292969 214.386719 149.460938 L 214.386719 177.441406 L 233.5 177.441406 L 233.5 149.460938 C 233.5 134.089844 221.085938 121.480469 205.519531 121.480469 L 163.945312 121.480469 C 148.574219 121.480469 135.964844 134.089844 135.964844 149.460938 L 135.964844 177.441406 Z M 164.929688 113.597656 C 158.03125 107.882812 153.695312 99.410156 153.695312 89.757812 C 153.695312 72.613281 167.6875 58.621094 184.832031 58.621094 C 201.972656 58.621094 215.964844 72.613281 215.964844 89.757812 C 215.964844 99.410156 211.628906 107.882812 204.730469 113.597656 L 205.519531 113.597656 C 225.421875 113.597656 241.382812 129.757812 241.382812 149.460938 L 241.382812 181.382812 C 241.382812 183.550781 239.609375 185.324219 237.441406 185.324219 L 132.023438 185.324219 C 129.855469 185.324219 128.082031 183.550781 128.082031 181.382812 L 128.082031 149.460938 C 128.082031 129.757812 144.238281 113.597656 163.945312 113.597656 Z M 184.832031 66.503906 C 172.023438 66.503906 161.578125 76.949219 161.578125 89.757812 C 161.578125 102.5625 172.023438 113.007812 184.832031 113.007812 C 197.636719 113.007812 208.082031 102.5625 208.082031 89.757812 C 208.082031 76.949219 197.636719 66.503906 184.832031 66.503906 Z M 184.832031 66.503906 " fill-opacity="1" fill-rule="evenodd"/><path fill="#000000" d="M 306.210938 84.632812 L 253.402344 84.632812 C 251.234375 84.632812 249.460938 83.054688 249.460938 80.691406 L 249.460938 28.082031 C 249.460938 26.503906 250.445312 25.125 252.023438 24.535156 C 253.402344 23.746094 255.175781 24.140625 256.160156 25.324219 L 308.574219 77.734375 C 309.558594 78.328125 310.152344 79.507812 310.152344 80.691406 C 310.152344 83.054688 308.378906 84.632812 306.210938 84.632812 Z M 257.34375 76.75 L 296.554688 76.75 L 257.34375 37.539062 Z M 257.34375 76.75 " fill-opacity="1" fill-rule="evenodd"/><g clip-path="url(#c2e9fc44fe)"><path fill="#000000" d="M 324.535156 360.496094 L 166.109375 360.496094 C 154.484375 360.496094 145.027344 350.839844 145.027344 339.214844 L 145.027344 334.484375 L 285.914062 334.484375 C 302.859375 334.484375 316.652344 320.691406 316.652344 303.746094 L 316.652344 101.183594 L 324.535156 101.183594 C 336.160156 101.183594 345.617188 110.644531 345.617188 122.269531 L 345.617188 339.214844 C 345.617188 350.839844 336.160156 360.496094 324.535156 360.496094 Z M 324.535156 360.496094 " fill-opacity="1" fill-rule="evenodd"/></g><path fill="#000000" d="M 221.085938 299.609375 L 42.5625 299.609375 C 40.394531 299.609375 38.621094 297.835938 38.621094 295.667969 L 38.621094 218.625 C 38.621094 216.457031 40.394531 214.683594 42.5625 214.683594 L 221.085938 214.683594 C 223.253906 214.683594 225.027344 216.457031 225.027344 218.625 L 225.027344 295.667969 C 225.027344 297.835938 223.253906 299.609375 221.085938 299.609375 Z M 170.644531 279.3125 C 168.476562 279.3125 166.703125 277.539062 166.703125 275.371094 L 166.703125 238.328125 L 166.898438 238.328125 L 166.898438 238.132812 C 167.292969 236.359375 168.871094 234.976562 170.644531 234.976562 L 187.390625 234.976562 C 189.558594 234.976562 191.332031 236.75 191.332031 238.917969 C 191.332031 241.085938 189.558594 242.859375 187.390625 242.859375 L 174.582031 242.859375 L 174.582031 251.136719 L 184.238281 251.136719 C 186.40625 251.136719 188.179688 252.910156 188.179688 255.078125 C 188.179688 257.246094 186.40625 259.019531 184.238281 259.019531 L 174.582031 259.019531 L 174.582031 275.371094 C 174.582031 277.539062 172.808594 279.3125 170.644531 279.3125 Z M 142.070312 279.3125 C 136.355469 279.3125 130.839844 277.144531 126.503906 272.8125 C 122.367188 268.671875 120.003906 263.15625 120.003906 257.246094 C 120.003906 251.332031 122.367188 245.816406 126.503906 241.679688 C 130.644531 237.539062 136.160156 235.371094 142.070312 235.371094 C 147.984375 235.371094 153.5 237.539062 157.636719 241.679688 C 159.214844 243.253906 159.214844 245.816406 157.636719 247.390625 C 156.0625 248.769531 153.5 248.769531 152.121094 247.390625 C 149.363281 244.632812 145.816406 243.253906 142.070312 243.253906 C 138.328125 243.253906 134.78125 244.632812 132.023438 247.390625 C 129.460938 249.953125 127.882812 253.5 127.882812 257.246094 C 127.882812 260.988281 129.460938 264.535156 132.023438 267.292969 C 137.539062 272.8125 146.605469 272.8125 152.121094 267.292969 C 153.695312 265.71875 156.0625 265.71875 157.636719 267.292969 C 159.214844 268.871094 159.214844 271.234375 157.636719 272.8125 C 153.304688 277.144531 147.785156 279.3125 142.070312 279.3125 Z M 94.386719 279.3125 C 92.808594 279.3125 91.429688 278.523438 90.839844 277.144531 L 72.710938 241.085938 C 71.726562 239.117188 72.515625 236.75 74.484375 235.765625 C 76.457031 234.78125 78.820312 235.570312 79.804688 237.539062 L 94.386719 266.503906 L 108.769531 237.539062 C 109.757812 235.570312 112.121094 234.78125 114.089844 235.765625 C 116.0625 236.75 116.851562 239.117188 115.863281 241.085938 L 97.933594 277.144531 C 97.144531 278.523438 95.765625 279.3125 94.386719 279.3125 Z M 94.386719 279.3125 " fill-opacity="1" fill-rule="evenodd"/></svg>