<svg xmlns="http://www.w3.org/2000/svg" xmlns:xlink="http://www.w3.org/1999/xlink" width="512" zoomAndPan="magnify" viewBox="0 0 384 383.999986" height="512" preserveAspectRatio="xMidYMid meet" version="1.0"><path fill="#020617" d="M 384 192 C 384 195.140625 383.921875 198.28125 383.769531 201.421875 C 383.613281 204.558594 383.382812 207.691406 383.074219 210.820312 C 382.765625 213.945312 382.382812 217.0625 381.921875 220.171875 C 381.460938 223.28125 380.921875 226.375 380.3125 229.457031 C 379.699219 232.539062 379.007812 235.605469 378.246094 238.652344 C 377.484375 241.699219 376.644531 244.726562 375.734375 247.734375 C 374.820312 250.742188 373.835938 253.722656 372.777344 256.683594 C 371.71875 259.640625 370.585938 262.570312 369.386719 265.476562 C 368.183594 268.378906 366.910156 271.25 365.566406 274.089844 C 364.222656 276.929688 362.808594 279.738281 361.328125 282.507812 C 359.847656 285.28125 358.300781 288.011719 356.683594 290.707031 C 355.070312 293.402344 353.386719 296.058594 351.640625 298.667969 C 349.894531 301.28125 348.085938 303.851562 346.214844 306.375 C 344.34375 308.898438 342.410156 311.375 340.417969 313.804688 C 338.425781 316.230469 336.371094 318.609375 334.261719 320.9375 C 332.152344 323.265625 329.988281 325.542969 327.765625 327.765625 C 325.542969 329.988281 323.265625 332.152344 320.9375 334.261719 C 318.609375 336.371094 316.230469 338.425781 313.804688 340.417969 C 311.375 342.410156 308.898438 344.34375 306.375 346.214844 C 303.851562 348.085938 301.28125 349.894531 298.667969 351.640625 C 296.058594 353.386719 293.402344 355.066406 290.707031 356.683594 C 288.011719 358.300781 285.28125 359.847656 282.507812 361.328125 C 279.738281 362.808594 276.929688 364.222656 274.089844 365.566406 C 271.25 366.910156 268.378906 368.183594 265.476562 369.386719 C 262.570312 370.585938 259.640625 371.71875 256.683594 372.777344 C 253.722656 373.835938 250.742188 374.820312 247.734375 375.734375 C 244.726562 376.644531 241.699219 377.480469 238.652344 378.246094 C 235.605469 379.007812 232.539062 379.699219 229.457031 380.3125 C 226.375 380.921875 223.28125 381.460938 220.171875 381.921875 C 217.0625 382.382812 213.945312 382.765625 210.820312 383.074219 C 207.691406 383.382812 204.558594 383.613281 201.421875 383.769531 C 198.28125 383.921875 195.140625 384 192 384 C 188.859375 384 185.71875 383.921875 182.578125 383.769531 C 179.441406 383.613281 176.308594 383.382812 173.179688 383.074219 C 170.054688 382.765625 166.9375 382.382812 163.828125 381.921875 C 160.71875 381.460938 157.625 380.921875 154.542969 380.3125 C 151.460938 379.699219 148.394531 379.007812 145.347656 378.246094 C 142.300781 377.480469 139.273438 376.644531 136.265625 375.734375 C 133.257812 374.820312 130.277344 373.835938 127.316406 372.777344 C 124.359375 371.71875 121.429688 370.585938 118.523438 369.386719 C 115.621094 368.183594 112.75 366.910156 109.910156 365.566406 C 107.070312 364.222656 104.261719 362.808594 101.492188 361.328125 C 98.71875 359.847656 95.988281 358.300781 93.292969 356.683594 C 90.597656 355.066406 87.941406 353.386719 85.332031 351.640625 C 82.71875 349.894531 80.148438 348.085938 77.625 346.214844 C 75.101562 344.34375 72.625 342.410156 70.195312 340.417969 C 67.765625 338.425781 65.390625 336.371094 63.0625 334.261719 C 60.734375 332.152344 58.457031 329.988281 56.234375 327.765625 C 54.011719 325.542969 51.847656 323.265625 49.738281 320.9375 C 47.628906 318.609375 45.574219 316.230469 43.582031 313.804688 C 41.589844 311.375 39.65625 308.898438 37.785156 306.375 C 35.914062 303.851562 34.105469 301.28125 32.359375 298.667969 C 30.613281 296.058594 28.929688 293.402344 27.316406 290.707031 C 25.699219 288.011719 24.152344 285.28125 22.671875 282.507812 C 21.191406 279.738281 19.777344 276.929688 18.433594 274.089844 C 17.089844 271.25 15.816406 268.378906 14.613281 265.476562 C 13.414062 262.570312 12.28125 259.640625 11.222656 256.683594 C 10.164062 253.722656 9.179688 250.742188 8.265625 247.734375 C 7.355469 244.726562 6.515625 241.699219 5.753906 238.652344 C 4.992188 235.605469 4.300781 232.539062 3.6875 229.457031 C 3.078125 226.375 2.539062 223.28125 2.078125 220.171875 C 1.617188 217.0625 1.234375 213.945312 0.925781 210.820312 C 0.617188 207.691406 0.386719 204.558594 0.230469 201.421875 C 0.078125 198.28125 0 195.140625 0 192 C 0 188.859375 0.078125 185.71875 0.230469 182.578125 C 0.386719 179.441406 0.617188 176.308594 0.925781 173.179688 C 1.234375 170.054688 1.617188 166.9375 2.078125 163.828125 C 2.539062 160.71875 3.078125 157.625 3.6875 154.542969 C 4.300781 151.460938 4.992188 148.394531 5.753906 145.347656 C 6.515625 142.300781 7.355469 139.273438 8.265625 136.265625 C 9.179688 133.257812 10.164062 130.277344 11.222656 127.316406 C 12.28125 124.359375 13.414062 121.429688 14.613281 118.523438 C 15.816406 115.621094 17.089844 112.75 18.433594 109.910156 C 19.777344 107.070312 21.191406 104.261719 22.671875 101.492188 C 24.152344 98.71875 25.699219 95.988281 27.316406 93.292969 C 28.929688 90.597656 30.613281 87.941406 32.359375 85.332031 C 34.105469 82.71875 35.914062 80.148438 37.785156 77.625 C 39.65625 75.101562 41.589844 72.625 43.582031 70.195312 C 45.574219 67.765625 47.628906 65.390625 49.738281 63.0625 C 51.847656 60.734375 54.011719 58.457031 56.234375 56.234375 C 58.457031 54.011719 60.734375 51.847656 63.0625 49.738281 C 65.390625 47.628906 67.765625 45.574219 70.195312 43.582031 C 72.625 41.589844 75.101562 39.65625 77.625 37.785156 C 80.148438 35.914062 82.71875 34.105469 85.332031 32.359375 C 87.941406 30.613281 90.597656 28.929688 93.292969 27.316406 C 95.988281 25.699219 98.71875 24.152344 101.492188 22.671875 C 104.261719 21.191406 107.070312 19.777344 109.910156 18.433594 C 112.75 17.089844 115.621094 15.816406 118.523438 14.613281 C 121.429688 13.414062 124.359375 12.28125 127.316406 11.222656 C 130.277344 10.164062 133.257812 9.179688 136.265625 8.265625 C 139.273438 7.355469 142.300781 6.515625 145.347656 5.753906 C 148.394531 4.992188 151.460938 4.300781 154.542969 3.6875 C 157.625 3.078125 160.71875 2.539062 163.828125 2.078125 C 166.9375 1.617188 170.054688 1.234375 173.179688 0.925781 C 176.308594 0.617188 179.441406 0.386719 182.578125 0.230469 C 185.71875 0.078125 188.859375 0 192 0 C 195.140625 0 198.28125 0.078125 201.421875 0.230469 C 204.558594 0.386719 207.691406 0.617188 210.820312 0.925781 C 213.945312 1.234375 217.0625 1.617188 220.171875 2.078125 C 223.28125 2.539062 226.375 3.078125 229.457031 3.6875 C 232.539062 4.300781 235.605469 4.992188 238.652344 5.753906 C 241.699219 6.515625 244.726562 7.355469 247.734375 8.265625 C 250.742188 9.179688 253.722656 10.164062 256.683594 11.222656 C 259.640625 12.28125 262.570312 13.414062 265.476562 14.613281 C 268.378906 15.816406 271.25 17.089844 274.089844 18.433594 C 276.929688 19.777344 279.738281 21.191406 282.507812 22.671875 C 285.28125 24.152344 288.011719 25.699219 290.707031 27.316406 C 293.402344 28.929688 296.058594 30.613281 298.667969 32.359375 C 301.28125 34.105469 303.851562 35.914062 306.375 37.785156 C 308.898438 39.65625 311.375 41.589844 313.804688 43.582031 C 316.230469 45.574219 318.609375 47.628906 320.9375 49.738281 C 323.265625 51.847656 325.542969 54.011719 327.765625 56.234375 C 329.988281 58.457031 332.152344 60.734375 334.261719 63.0625 C 336.371094 65.390625 338.425781 67.765625 340.417969 70.195312 C 342.410156 72.625 344.34375 75.101562 346.214844 77.625 C 348.085938 80.148438 349.894531 82.71875 351.640625 85.332031 C 353.386719 87.941406 355.070312 90.597656 356.683594 93.292969 C 358.300781 95.988281 359.847656 98.71875 361.328125 101.492188 C 362.808594 104.261719 364.222656 107.070312 365.566406 109.910156 C 366.910156 112.75 368.183594 115.621094 369.386719 118.523438 C 370.585938 121.429688 371.71875 124.359375 372.777344 127.316406 C 373.835938 130.277344 374.820312 133.257812 375.734375 136.265625 C 376.644531 139.273438 377.484375 142.300781 378.246094 145.347656 C 379.007812 148.394531 379.699219 151.460938 380.3125 154.542969 C 380.921875 157.625 381.460938 160.71875 381.921875 163.828125 C 382.382812 166.9375 382.765625 170.054688 383.074219 173.179688 C 383.382812 176.308594 383.613281 179.441406 383.769531 182.578125 C 383.921875 185.71875 384 188.859375 384 192 Z M 384 192 " fill-opacity="1" fill-rule="nonzero"/><path fill="#38bdf8" d="M 260.5625 291.242188 L 124.160156 291.242188 C 115.085938 291.242188 107.449219 284.183594 106.585938 275.253906 L 213.171875 275.253906 C 217.351562 275.253906 220.808594 271.796875 220.808594 267.617188 L 220.808594 211.300781 C 220.808594 207.125 217.351562 203.667969 213.171875 203.667969 L 106.441406 203.667969 L 106.441406 86.855469 C 106.441406 77.058594 114.507812 69.136719 124.160156 69.136719 C 190.128906 69.136719 90.023438 69.136719 236.796875 69.136719 C 238.378906 69.136719 239.675781 70.433594 239.675781 72.019531 C 239.675781 73.3125 238.8125 74.464844 237.660156 74.753906 L 237.660156 109.035156 L 272.515625 110.332031 C 272.660156 108.890625 273.8125 107.59375 275.398438 107.59375 C 276.980469 107.59375 278.277344 108.890625 278.277344 110.476562 L 278.277344 273.523438 C 278.277344 283.320312 270.355469 291.242188 260.5625 291.242188 Z M 165.066406 181.199219 L 165.066406 160.746094 C 165.066406 159.160156 166.363281 157.863281 167.945312 157.863281 C 169.53125 157.863281 170.828125 159.160156 170.828125 160.746094 L 170.828125 181.199219 L 202.515625 181.199219 L 202.515625 160.746094 C 202.515625 159.160156 203.8125 157.863281 205.394531 157.863281 C 206.980469 157.863281 208.277344 159.160156 208.277344 160.746094 L 208.277344 181.199219 L 222.246094 181.199219 L 222.246094 160.746094 C 222.246094 149.507812 213.171875 140.292969 201.792969 140.292969 L 171.402344 140.292969 C 160.167969 140.292969 150.949219 149.507812 150.949219 160.746094 L 150.949219 181.199219 Z M 172.121094 134.53125 C 167.082031 130.351562 163.914062 124.160156 163.914062 117.101562 C 163.914062 104.570312 174.140625 94.34375 186.671875 94.34375 C 199.203125 94.34375 209.429688 104.570312 209.429688 117.101562 C 209.429688 124.160156 206.257812 130.351562 201.21875 134.53125 L 201.792969 134.53125 C 216.34375 134.53125 228.007812 146.339844 228.007812 160.746094 L 228.007812 184.078125 C 228.007812 185.664062 226.710938 186.957031 225.128906 186.957031 L 148.070312 186.957031 C 146.484375 186.957031 145.1875 185.664062 145.1875 184.078125 L 145.1875 160.746094 C 145.1875 146.339844 157 134.53125 171.402344 134.53125 Z M 186.671875 100.105469 C 177.308594 100.105469 169.675781 107.738281 169.675781 117.101562 C 169.675781 126.464844 177.308594 134.097656 186.671875 134.097656 C 196.03125 134.097656 203.667969 126.464844 203.667969 117.101562 C 203.667969 107.738281 196.03125 100.105469 186.671875 100.105469 Z M 186.671875 100.105469 " fill-opacity="1" fill-rule="evenodd"/><path fill="#38bdf8" d="M 275.398438 113.355469 L 236.796875 113.355469 C 235.210938 113.355469 233.914062 112.203125 233.914062 110.476562 L 233.914062 72.019531 C 233.914062 70.867188 234.632812 69.859375 235.785156 69.425781 C 236.796875 68.847656 238.089844 69.136719 238.8125 70 L 277.125 108.316406 C 277.84375 108.746094 278.277344 109.613281 278.277344 110.476562 C 278.277344 112.203125 276.980469 113.355469 275.398438 113.355469 Z M 239.675781 107.59375 L 268.339844 107.59375 L 239.675781 78.933594 Z M 239.675781 107.59375 " fill-opacity="1" fill-rule="evenodd"/><path fill="#38bdf8" d="M 288.792969 315.007812 L 172.988281 315.007812 C 164.488281 315.007812 157.574219 307.949219 157.574219 299.449219 L 157.574219 295.992188 L 260.5625 295.992188 C 272.949219 295.992188 283.03125 285.910156 283.03125 273.523438 L 283.03125 125.457031 L 288.792969 125.457031 C 297.289062 125.457031 304.203125 132.367188 304.203125 140.867188 L 304.203125 299.449219 C 304.203125 307.949219 297.289062 315.007812 288.792969 315.007812 Z M 288.792969 315.007812 " fill-opacity="1" fill-rule="evenodd"/><path fill="#38bdf8" d="M 213.171875 270.5 L 82.675781 270.5 C 81.09375 270.5 79.796875 269.203125 79.796875 267.617188 L 79.796875 211.300781 C 79.796875 209.714844 81.09375 208.421875 82.675781 208.421875 L 213.171875 208.421875 C 214.757812 208.421875 216.054688 209.714844 216.054688 211.300781 L 216.054688 267.617188 C 216.054688 269.203125 214.757812 270.5 213.171875 270.5 Z M 176.300781 255.664062 C 174.714844 255.664062 173.417969 254.367188 173.417969 252.78125 L 173.417969 225.703125 L 173.5625 225.703125 L 173.5625 225.558594 C 173.851562 224.265625 175.003906 223.253906 176.300781 223.253906 L 188.542969 223.253906 C 190.128906 223.253906 191.425781 224.550781 191.425781 226.136719 C 191.425781 227.722656 190.128906 229.015625 188.542969 229.015625 L 179.179688 229.015625 L 179.179688 235.066406 L 186.238281 235.066406 C 187.824219 235.066406 189.121094 236.363281 189.121094 237.949219 C 189.121094 239.53125 187.824219 240.828125 186.238281 240.828125 L 179.179688 240.828125 L 179.179688 252.78125 C 179.179688 254.367188 177.882812 255.664062 176.300781 255.664062 Z M 155.414062 255.664062 C 151.238281 255.664062 147.203125 254.078125 144.035156 250.910156 C 141.011719 247.886719 139.28125 243.851562 139.28125 239.53125 C 139.28125 235.210938 141.011719 231.179688 144.035156 228.152344 C 147.0625 225.128906 151.09375 223.542969 155.414062 223.542969 C 159.734375 223.542969 163.769531 225.128906 166.792969 228.152344 C 167.945312 229.304688 167.945312 231.179688 166.792969 232.328125 C 165.640625 233.339844 163.769531 233.339844 162.761719 232.328125 C 160.746094 230.3125 158.152344 229.304688 155.414062 229.304688 C 152.679688 229.304688 150.085938 230.3125 148.070312 232.328125 C 146.195312 234.203125 145.042969 236.796875 145.042969 239.53125 C 145.042969 242.269531 146.195312 244.859375 148.070312 246.878906 C 152.101562 250.910156 158.726562 250.910156 162.761719 246.878906 C 163.914062 245.726562 165.640625 245.726562 166.792969 246.878906 C 167.945312 248.03125 167.945312 249.757812 166.792969 250.910156 C 163.625 254.078125 159.59375 255.664062 155.414062 255.664062 Z M 120.558594 255.664062 C 119.40625 255.664062 118.398438 255.085938 117.964844 254.078125 L 104.714844 227.722656 C 103.992188 226.28125 104.570312 224.550781 106.011719 223.832031 C 107.449219 223.113281 109.179688 223.6875 109.898438 225.128906 L 120.558594 246.300781 L 131.074219 225.128906 C 131.792969 223.6875 133.519531 223.113281 134.960938 223.832031 C 136.402344 224.550781 136.976562 226.28125 136.257812 227.722656 L 123.152344 254.078125 C 122.574219 255.085938 121.566406 255.664062 120.558594 255.664062 Z M 120.558594 255.664062 " fill-opacity="1" fill-rule="evenodd"/></svg>